<svg width="372" height="404" viewBox="0 0 372 404" fill="none" xmlns="http://www.w3.org/2000/svg">
<path fill-rule="evenodd" clip-rule="evenodd" d="M155.575 44.298C149.981 37.732 146.195 29.6851 146.828 20.6684C148.651 -5.31115 184.815 0.404026 191.85 13.5163C198.885 26.6286 198.049 59.8889 188.957 62.2325C185.331 63.167 177.607 60.8777 169.746 56.1393L174.68 91.048H145.545L155.575 44.298Z" fill="#B28B67"/>
<path fill-rule="evenodd" clip-rule="evenodd" d="M164.64 30.1879C163.688 29.5331 162.549 29.1354 161.326 29.1354C157.974 29.1354 155.257 32.1247 155.257 35.2052C155.257 38.41 156.77 40.8879 158.931 41.9391C157.777 44.1958 156.616 45.8335 155.257 46.131C150.01 45.6002 143.117 32.5594 143.117 21.8515C143.117 10.1312 152.443 0 169.824 0C185.447 0 191.371 6.4416 191.676 12.1397C184.981 13.9796 173.283 14.6881 156.471 14.5677V15.7816L171.038 16.9956L173.466 24.2795C169.603 23.9911 166.843 26.6406 164.64 30.1879Z" fill="#191847"/>
<path d="M133.405 403.039C185.03 403.039 226.881 363.091 226.881 313.812C226.881 264.533 185.03 224.585 133.405 224.585C81.7797 224.585 39.9291 264.533 39.9291 313.812C39.9291 363.091 81.7797 403.039 133.405 403.039Z" fill="#C5CFD6"/>
<path fill-rule="evenodd" clip-rule="evenodd" d="M310.049 389.272C294.495 354.846 283.246 324.869 278.731 309.053C271 281.973 265.118 258.143 263.632 249.244C260.087 228.023 290.9 226.788 294.973 237.334C301.137 253.296 311.899 305.742 324.83 384.96L310.049 389.272ZM129.627 281.233C143.899 275.592 193.875 257.939 217.979 252.945C224.906 251.51 231.619 250.177 237.931 248.972C256.691 245.39 266.411 279.235 248.342 281.835C203.344 288.312 139.551 294.999 134.092 295.75C126.44 296.802 120.659 284.778 129.627 281.233Z" fill="#B28B67"/>
<path fill-rule="evenodd" clip-rule="evenodd" d="M249.445 239.658L172.252 200.362V191.808H181.432C256.113 210.838 294.275 223.033 295.918 228.394C295.936 228.452 295.952 228.51 295.967 228.568C296.004 228.617 296.041 228.666 296.077 228.716C310.878 249.071 319.741 348.443 322.651 355.884L294.29 360.115C283.441 319.886 248.732 291.861 249.654 243.68C249.405 242.266 249.343 240.926 249.445 239.658Z" fill="#1F28CF"/>
<path fill-rule="evenodd" clip-rule="evenodd" d="M178.666 262.996C171.603 261.582 165.098 260.32 159.533 259.344C123.583 253.038 113.1 233.795 119.298 191.808H185.535C196.355 194.916 252.586 218.497 281.76 231.039C301.07 239.34 294.983 269.265 284.048 277.052C283.989 277.53 283.792 277.855 283.441 278C224.619 302.38 178.085 289.588 162.54 293.675L155.35 270.993L178.666 262.996Z" fill="#2B44FF"/>
<path fill-rule="evenodd" clip-rule="evenodd" d="M134.507 277.628C130.653 277.997 127.917 278.575 126.299 279.365C124.332 280.324 121.621 282.052 118.165 284.549C119.279 286.832 129.284 307.345 148.181 346.09C154.248 345.11 156.652 342.795 155.393 339.144C154.134 335.493 153.119 332.445 152.347 330L151.147 295.177C151.124 294.507 150.562 293.983 149.892 294.006C149.881 294.006 149.869 294.007 149.858 294.007L144.501 294.344C141.457 291.88 139.449 289.651 138.476 287.657C137.686 286.037 137.249 283.48 137.165 279.987L137.165 279.987C137.133 278.646 136.021 277.586 134.68 277.618C134.622 277.619 134.565 277.623 134.507 277.628Z" fill="#E4E4E4"/>
<path fill-rule="evenodd" clip-rule="evenodd" d="M302.97 382.889C301.612 386.515 300.933 389.228 300.933 391.028C300.933 393.217 301.298 396.411 302.027 400.611C304.567 400.611 327.39 400.611 370.498 400.611C372.277 394.729 371.25 391.553 367.416 391.084C363.583 390.615 360.398 390.192 357.863 389.814L326.038 375.626C325.426 375.353 324.708 375.628 324.435 376.241C324.43 376.251 324.426 376.262 324.422 376.272L322.376 381.234C318.827 382.89 315.943 383.718 313.724 383.718C311.922 383.718 309.432 382.99 306.256 381.534L306.256 381.534C305.037 380.975 303.596 381.51 303.037 382.729C303.013 382.782 302.991 382.835 302.97 382.889Z" fill="#E4E4E4"/>
<path fill-rule="evenodd" clip-rule="evenodd" d="M244.956 167.688L283.68 196.124C294.183 198.958 302.957 202.483 310.004 206.701C311.668 208.218 313.68 211.29 306.777 210.759C299.874 210.228 292.589 209.98 291.636 212.335C290.684 214.689 294.861 217.505 292.936 220.682C291.652 222.8 285.588 217.489 274.743 204.75L236.396 188.849L244.956 167.688ZM69.719 155.844L91.0985 159.715C66.2849 208.955 52.9947 234.99 51.2279 237.82C47.2526 244.188 51.2656 255.662 52.7796 261.714C43.9827 263.925 47.234 250.566 36.1047 253.538C25.9465 256.25 17.4095 262.905 7.74295 254.3C6.55451 253.242 5.63946 249.886 9.59711 248.087C19.4571 243.607 33.9946 235.286 36.32 232.113C39.4912 227.786 50.6242 202.363 69.719 155.844Z" fill="#B28B67"/>
<path fill-rule="evenodd" clip-rule="evenodd" d="M253.977 170.779C258.96 170.421 264.379 171.247 270.189 173.205C273.049 174.168 274.585 177.267 273.622 180.126C273.063 181.786 271.783 183.001 270.248 183.539C271.36 184.35 272.481 185.156 273.613 185.958L263.844 205.901C222.735 185.405 184.097 169.951 166.49 136.113C160.581 124.755 162.581 86.1778 162.017 72.1435L175.001 66.8188C193.099 104.23 217.593 140.121 253.977 170.779Z" fill="#69A1AC"/>
<path fill-rule="evenodd" clip-rule="evenodd" d="M116.409 202.624C154.575 206.817 184.615 206.817 206.53 202.624C209.245 202.104 209.126 190.4 207.867 187.203C188.259 137.424 175.36 100.983 175.36 66.4075C171.762 68.2869 165.466 68.5685 156.47 67.2525C132.296 102.884 121.183 143.767 116.409 202.624Z" fill="#191847"/>
<path fill-rule="evenodd" clip-rule="evenodd" d="M109.318 208.509C108.022 207.29 107.346 205.462 107.678 203.578L108.311 199.992C108.739 197.561 110.713 195.791 113.044 195.514C113.451 193.693 113.803 191.884 114.093 190.088C116.543 174.918 112.356 160.043 112.553 145.437C93.0321 162.092 75.5204 190.85 60.0178 231.712L37.0897 224.966C37.9646 221.715 38.8707 218.505 39.8083 215.335C37.1619 213.832 34.0696 206.941 36.2951 205.788C38.5936 204.597 41.0285 203.759 43.5928 203.266C64.6156 139.946 98.9944 93.6374 146.729 64.3406H150.952L160.535 64.3406C156.47 118.096 212.616 235.456 193.121 335.686C157.087 343.733 105.644 318.696 55.5684 338.698C57.4317 298.335 94.7559 250.917 109.318 208.509V208.509Z" fill="#89C5CC"/>
<path fill-rule="evenodd" clip-rule="evenodd" d="M151.743 65.5545L145.48 84.8148L158.092 99.2533L146.694 110.6L174.27 157.816L140.548 110.694L151.743 99.2533L140.548 86.4937L151.743 65.5545Z" fill="black" fill-opacity="0.1"/>
<path fill-rule="evenodd" clip-rule="evenodd" d="M166.182 176.026C163.5 176.026 161.326 173.852 161.326 171.17C161.326 168.488 163.5 166.314 166.182 166.314C168.864 166.314 171.038 168.488 171.038 171.17C171.038 173.852 168.864 176.026 166.182 176.026ZM172.252 203.947C169.57 203.947 167.396 201.773 167.396 199.092C167.396 196.41 169.57 194.236 172.252 194.236C174.934 194.236 177.108 196.41 177.108 199.092C177.108 201.773 174.934 203.947 172.252 203.947ZM173.466 231.869C170.784 231.869 168.61 229.695 168.61 227.013C168.61 224.331 170.784 222.157 173.466 222.157C176.148 222.157 178.322 224.331 178.322 227.013C178.322 229.695 176.148 231.869 173.466 231.869Z" fill="black" fill-opacity="0.4"/>
</svg>
