<svg width="29" height="29" viewBox="0 0 29 29" fill="none" xmlns="http://www.w3.org/2000/svg">
<path d="M16.2047 0.424255V2.35269C18.1121 2.35269 19.899 2.8348 21.5654 3.79902C23.1516 4.74315 24.4165 6.00869 25.3601 7.59563C26.3238 9.26292 26.8057 11.0507 26.8057 12.9591H28.7332C28.7332 10.6892 28.1609 8.57994 27.0165 6.63141C25.9122 4.74315 24.4165 3.2466 22.5292 2.14177C20.5816 0.99676 18.4735 0.424255 16.2047 0.424255ZM6.23611 3.31691C5.69401 3.31691 5.22219 3.48766 4.82064 3.82915L1.71863 6.99299L1.80898 6.93273C1.30704 7.35458 0.97576 7.87686 0.815138 8.49959C0.674594 9.12231 0.71475 9.72495 0.935604 10.3075C1.49778 11.8743 2.25069 13.4814 3.19434 15.1286C4.51947 17.3985 6.09557 19.4374 7.92264 21.2453C10.854 24.1983 14.4981 26.5285 18.8549 28.2359H18.8851C19.4673 28.4368 20.0496 28.477 20.6318 28.3565C21.2341 28.2359 21.7662 27.9748 22.228 27.573L25.2698 24.5297C25.6713 24.128 25.8721 23.6358 25.8721 23.0533C25.8721 22.4506 25.6713 21.9484 25.2698 21.5467L21.3245 17.5693C20.9229 17.1675 20.421 16.9666 19.8187 16.9666C19.2163 16.9666 18.7144 17.1675 18.3128 17.5693L16.4155 19.4977C14.8896 18.7745 13.5645 17.8806 12.4401 16.816C11.3158 15.7312 10.4223 14.4155 9.75975 12.8687L11.6872 10.9403C12.1088 10.4983 12.3196 9.97604 12.3196 9.37341C12.3196 8.75068 12.0787 8.24849 11.5969 7.86682L11.6872 7.95721L7.65159 3.82915C7.25003 3.48766 6.77821 3.31691 6.23611 3.31691ZM16.2047 4.28113V6.20957C17.4294 6.20957 18.5538 6.51088 19.5777 7.11352C20.6218 7.71616 21.445 8.53976 22.0473 9.58433C22.6496 10.6088 22.9508 11.7337 22.9508 12.9591H24.8782C24.8782 11.3922 24.4867 9.93587 23.7037 8.58998C22.9207 7.28427 21.8766 6.2397 20.5716 5.45627C19.2264 4.67284 17.7707 4.28113 16.2047 4.28113ZM6.23611 5.24535C6.29635 5.24535 6.36662 5.27548 6.44693 5.33574L10.3922 9.37341C10.4123 9.45376 10.3922 9.52407 10.332 9.58433L7.47089 12.4167L7.6817 13.0194L8.07322 13.8631C8.39446 14.546 8.7659 15.2089 9.18753 15.8518C9.76978 16.7557 10.4123 17.5291 11.115 18.1719C12.0586 19.0959 13.193 19.9396 14.5182 20.703C15.1807 21.0846 15.7429 21.3659 16.2047 21.5467L16.807 21.8179L19.7283 18.8951C19.7685 18.8549 19.7986 18.8348 19.8187 18.8348C19.8387 18.8348 19.8689 18.8549 19.909 18.8951L23.9747 22.9629C24.0149 23.003 24.035 23.0332 24.035 23.0533C24.035 23.0533 24.0149 23.0733 23.9747 23.1135L20.9631 26.0966C20.5214 26.4782 20.0395 26.5787 19.5175 26.3979C15.4217 24.8109 12.0084 22.6415 9.27788 19.8894C7.59136 18.202 6.11565 16.2836 4.85075 14.1342C3.94726 12.5875 3.24454 11.0909 2.7426 9.64459V9.61446C2.66228 9.43367 2.65225 9.22275 2.71248 8.98169C2.77271 8.72055 2.88314 8.51967 3.04376 8.37906L6.0253 5.33574C6.08553 5.27548 6.1558 5.24535 6.23611 5.24535ZM16.2047 8.138V10.0664C17.0078 10.0664 17.6904 10.3477 18.2526 10.9101C18.8148 11.4726 19.0959 12.1556 19.0959 12.9591H21.0233C21.0233 12.0953 20.8025 11.2918 20.3608 10.5485C19.9391 9.8053 19.3569 9.22275 18.614 8.8009C17.8711 8.35897 17.068 8.138 16.2047 8.138Z" fill="black"/>
</svg>
